<svg width="31" height="31" viewBox="0 0 31 31" fill="none" xmlns="http://www.w3.org/2000/svg">
<path d="M21.0544 2.90771H10.5018C5.91814 2.90771 3.18555 5.64031 3.18555 10.224V20.764C3.18555 25.3603 5.91814 28.0929 10.5018 28.0929H21.0418C25.6255 28.0929 28.3581 25.3603 28.3581 20.7766V10.224C28.3707 5.64031 25.6381 2.90771 21.0544 2.90771ZM10.2752 23.2448C10.2752 23.761 9.84703 24.1892 9.33073 24.1892C8.81444 24.1892 8.38629 23.761 8.38629 23.2448V20.6381C8.38629 20.1218 8.81444 19.6936 9.33073 19.6936C9.84703 19.6936 10.2752 20.1218 10.2752 20.6381V23.2448ZM16.7226 23.2448C16.7226 23.761 16.2944 24.1892 15.7781 24.1892C15.2618 24.1892 14.8337 23.761 14.8337 23.2448V18.0188C14.8337 17.5025 15.2618 17.0744 15.7781 17.0744C16.2944 17.0744 16.7226 17.5025 16.7226 18.0188V23.2448ZM23.17 23.2448C23.17 23.761 22.7418 24.1892 22.2255 24.1892C21.7093 24.1892 21.2811 23.761 21.2811 23.2448V15.4122C21.2811 14.8959 21.7093 14.4677 22.2255 14.4677C22.7418 14.4677 23.17 14.8959 23.17 15.4122V23.2448ZM23.17 11.4329C23.17 11.9492 22.7418 12.3773 22.2255 12.3773C21.7093 12.3773 21.2811 11.9492 21.2811 11.4329V10.2114C18.07 13.5107 14.053 15.8403 9.5574 16.961C9.48184 16.9862 9.40629 16.9862 9.33073 16.9862C8.90258 16.9862 8.52481 16.6966 8.41147 16.2685C8.28555 15.7648 8.58777 15.2485 9.10407 15.1225C13.3478 14.0648 17.1255 11.8359 20.1226 8.68772H18.5485C18.0322 8.68772 17.6041 8.25957 17.6041 7.74327C17.6041 7.22697 18.0322 6.79883 18.5485 6.79883H22.2381C22.2885 6.79883 22.3263 6.82401 22.3767 6.82401C22.4396 6.8366 22.5026 6.8366 22.5655 6.86179C22.6285 6.88697 22.6789 6.92475 22.7418 6.96253C22.7796 6.98771 22.8174 7.00031 22.8552 7.02549C22.8678 7.03809 22.8678 7.05068 22.8804 7.05068C22.9307 7.10105 22.9685 7.15142 23.0063 7.20179C23.0441 7.25216 23.0818 7.28994 23.0944 7.34031C23.1196 7.39068 23.1196 7.44105 23.1322 7.50401C23.1448 7.56697 23.17 7.62994 23.17 7.70549C23.17 7.71809 23.1826 7.73068 23.1826 7.74327V11.4329H23.17Z" fill="#F5F5F5"/>
</svg>
